<svg width="22" height="24" viewBox="0 0 22 24" fill="none" xmlns="http://www.w3.org/2000/svg">
<path d="M2.17083 13.0692L2.37551 12.3477L2.17083 13.0692ZM1.07547 12.0721L1.78505 11.8292L1.07547 12.0721ZM20.9245 12.0721L20.215 11.8292L20.9245 12.0721ZM19.8292 13.0692L19.6245 12.3477L19.8292 13.0692ZM18.3656 6.46492L18.5703 5.74339L18.3656 6.46492ZM20.8302 8.70853L21.5398 8.46563L20.8302 8.70853ZM3.63436 6.46492L3.42968 5.74339L3.63436 6.46492ZM1.1698 8.70853L0.460216 8.46563L1.1698 8.70853ZM2.66667 13.1379V12.3879H1.91667V13.1379H2.66667ZM19.3333 13.1379H20.0833V12.3879H19.3333V13.1379ZM4.94171 22.5866L4.62612 23.2669L4.94171 22.5866ZM3.12081 20.9289L2.46634 21.2952L3.12081 20.9289ZM18.8792 20.9289L19.5337 21.2952L18.8792 20.9289ZM17.0583 22.5866L17.3739 23.2669L17.0583 22.5866ZM11.75 6.31035C11.75 5.89613 11.4142 5.56035 11 5.56035C10.5858 5.56035 10.25 5.89613 10.25 6.31035H11.75ZM10.25 23C10.25 23.4142 10.5858 23.75 11 23.75C11.4142 23.75 11.75 23.4142 11.75 23H10.25ZM10.9255 6.10326L11.5427 6.52929L10.9255 6.10326ZM10.7725 6.24252L11.1449 6.89354L10.7725 6.24252ZM11.0745 6.10326L10.4573 6.52929L11.0745 6.10326ZM11.2275 6.24252L10.8551 6.89354L11.2275 6.24252ZM6.19231 7.06035H15.8077V5.56035H6.19231V7.06035ZM18.6923 12.3879H3.30769V13.8879H18.6923V12.3879ZM3.30769 12.3879C2.65971 12.3879 2.49194 12.3807 2.37551 12.3477L1.96615 13.7908C2.33407 13.8951 2.76276 13.8879 3.30769 13.8879V12.3879ZM0.25 11.0371C0.25 11.5193 0.239855 11.9468 0.365885 12.315L1.78505 11.8292C1.76014 11.7564 1.75 11.6409 1.75 11.0371H0.25ZM2.37551 12.3477C2.06682 12.2601 1.86111 12.0514 1.78505 11.8292L0.365885 12.315C0.615724 13.0448 1.22899 13.5816 1.96615 13.7908L2.37551 12.3477ZM20.25 11.0371C20.25 11.6409 20.2399 11.7564 20.215 11.8292L21.6341 12.315C21.7601 11.9468 21.75 11.5193 21.75 11.0371H20.25ZM18.6923 13.8879C19.2372 13.8879 19.6659 13.8951 20.0339 13.7908L19.6245 12.3477C19.5081 12.3807 19.3403 12.3879 18.6923 12.3879V13.8879ZM20.215 11.8292C20.1389 12.0514 19.9332 12.2601 19.6245 12.3477L20.0339 13.7908C20.771 13.5816 21.3843 13.0448 21.6341 12.315L20.215 11.8292ZM15.8077 7.06035C17.2013 7.06035 17.7418 7.06755 18.161 7.18645L18.5703 5.74339C17.8997 5.55314 17.0982 5.56035 15.8077 5.56035V7.06035ZM21.75 11.0371C21.75 9.87622 21.7601 9.1094 21.5398 8.46563L20.1206 8.95142C20.2399 9.29974 20.25 9.75463 20.25 11.0371H21.75ZM18.161 7.18645C19.1233 7.45944 19.8409 8.13415 20.1206 8.95142L21.5398 8.46563C21.0863 7.1407 19.9611 6.13793 18.5703 5.74339L18.161 7.18645ZM6.19231 5.56035C4.9018 5.56035 4.10033 5.55314 3.42968 5.74339L3.83904 7.18645C4.25819 7.06755 4.79875 7.06035 6.19231 7.06035V5.56035ZM1.75 11.0371C1.75 9.75463 1.76014 9.29974 1.87938 8.95142L0.460216 8.46563C0.239855 9.1094 0.25 9.87622 0.25 11.0371H1.75ZM3.42968 5.74339C2.03886 6.13793 0.913744 7.1407 0.460216 8.46563L1.87938 8.95142C2.15913 8.13415 2.87669 7.45944 3.83904 7.18645L3.42968 5.74339ZM2.66667 13.8879H19.3333V12.3879H2.66667V13.8879ZM18.5833 13.1379V16.931H20.0833V13.1379H18.5833ZM12.6667 22.25H9.33333V23.75H12.6667V22.25ZM3.41667 16.931V13.1379H1.91667V16.931H3.41667ZM9.33333 22.25C8.15528 22.25 7.31282 22.2495 6.6523 22.2004C5.99869 22.1518 5.58605 22.0587 5.25729 21.9062L4.62612 23.2669C5.18866 23.5279 5.80506 23.6415 6.54104 23.6963C7.27013 23.7505 8.17783 23.75 9.33333 23.75V22.25ZM1.91667 16.931C1.91667 17.9796 1.91596 18.8156 1.97644 19.4894C2.0379 20.1742 2.16693 20.7603 2.46634 21.2952L3.77527 20.5626C3.62055 20.2862 3.5225 19.9355 3.47043 19.3553C3.41737 18.7641 3.41667 18.0068 3.41667 16.931H1.91667ZM5.25729 21.9062C4.60786 21.605 4.09313 21.1305 3.77527 20.5626L2.46634 21.2952C2.94743 22.1548 3.70754 22.8409 4.62612 23.2669L5.25729 21.9062ZM18.5833 16.931C18.5833 18.0068 18.5826 18.7641 18.5296 19.3553C18.4775 19.9355 18.3795 20.2862 18.2247 20.5626L19.5337 21.2952C19.8331 20.7603 19.9621 20.1742 20.0236 19.4894C20.084 18.8156 20.0833 17.9796 20.0833 16.931H18.5833ZM12.6667 23.75C13.8222 23.75 14.7299 23.7505 15.459 23.6963C16.1949 23.6415 16.8113 23.5279 17.3739 23.2669L16.7427 21.9062C16.414 22.0587 16.0013 22.1518 15.3477 22.2004C14.6872 22.2495 13.8447 22.25 12.6667 22.25V23.75ZM18.2247 20.5626C17.9069 21.1305 17.3921 21.605 16.7427 21.9062L17.3739 23.2669C18.2925 22.8409 19.0526 22.1548 19.5337 21.2952L18.2247 20.5626ZM10.25 6.31035V23H11.75V6.31035H10.25ZM10.25 3.65517V5.55172H11.75V3.65517H10.25ZM10.1667 5.56035H8.08333V7.06035H10.1667V5.56035ZM8.08333 5.56035C6.81886 5.56035 5.91667 4.64263 5.91667 3.65517H4.41667C4.41667 5.60054 6.12614 7.06035 8.08333 7.06035V5.56035ZM10.25 5.55172C10.25 5.62788 10.25 5.68427 10.249 5.7322C10.248 5.7802 10.2463 5.80554 10.2449 5.81845C10.2436 5.83083 10.244 5.81742 10.2525 5.79023C10.262 5.75943 10.2794 5.71899 10.3082 5.67722L11.5427 6.52929C11.6791 6.33177 11.7203 6.12873 11.7365 5.97736C11.751 5.84101 11.75 5.68332 11.75 5.55172H10.25ZM10.1667 7.06035C10.3156 7.06035 10.4762 7.06103 10.6129 7.04896C10.7583 7.03612 10.9513 7.00427 11.1449 6.89354L10.4001 5.5915C10.4751 5.54859 10.5276 5.55065 10.481 5.55477C10.4586 5.55675 10.4243 5.55846 10.369 5.55939C10.3139 5.56032 10.2497 5.56035 10.1667 5.56035V7.06035ZM10.3082 5.67722C10.3358 5.63728 10.3687 5.60948 10.4001 5.5915L11.1449 6.89354C11.3 6.80481 11.4375 6.68181 11.5427 6.52929L10.3082 5.67722ZM8.08333 1.75C9.3478 1.75 10.25 2.66772 10.25 3.65517H11.75C11.75 1.7098 10.0405 0.25 8.08333 0.25V1.75ZM8.08333 0.25C6.12614 0.25 4.41667 1.7098 4.41667 3.65517H5.91667C5.91667 2.66772 6.81886 1.75 8.08333 1.75V0.25ZM11.8333 7.06035H13.9167V5.56035H11.8333V7.06035ZM13.9167 7.06035C15.8739 7.06035 17.5833 5.60054 17.5833 3.65517H16.0833C16.0833 4.64263 15.1811 5.56035 13.9167 5.56035V7.06035ZM10.25 5.55172C10.25 5.68332 10.249 5.84101 10.2635 5.97735C10.2797 6.12873 10.3209 6.33177 10.4573 6.52929L11.6918 5.67722C11.7206 5.719 11.738 5.75943 11.7475 5.79023C11.756 5.81743 11.7564 5.83083 11.7551 5.81845C11.7537 5.80555 11.752 5.78021 11.751 5.7322C11.75 5.68427 11.75 5.62788 11.75 5.55172H10.25ZM11.8333 5.56035C11.7503 5.56035 11.6861 5.56032 11.631 5.55939C11.5757 5.55846 11.5414 5.55675 11.519 5.55477C11.4724 5.55065 11.5249 5.54859 11.5999 5.5915L10.8551 6.89354C11.0487 7.00427 11.2417 7.03612 11.3871 7.04896C11.5238 7.06103 11.6844 7.06035 11.8333 7.06035V5.56035ZM10.4573 6.52929C10.5625 6.68182 10.7 6.80482 10.8551 6.89354L11.5999 5.5915C11.6313 5.60948 11.6642 5.63728 11.6918 5.67722L10.4573 6.52929ZM13.9167 0.25C11.9595 0.25 10.25 1.7098 10.25 3.65517H11.75C11.75 2.66772 12.6522 1.75 13.9167 1.75V0.25ZM13.9167 1.75C15.1811 1.75 16.0833 2.66772 16.0833 3.65517H17.5833C17.5833 1.7098 15.8739 0.25 13.9167 0.25V1.75Z" fill="white"/>
</svg>
