<svg width="10" height="13" viewBox="0 0 10 13" fill="none" xmlns="http://www.w3.org/2000/svg">
<circle cx="4.98438" cy="8.58973" r="1.04212" stroke="white" stroke-width="1.5"/>
<path d="M4.56752 11.7161H3.31697C2.13795 11.7161 1.54844 11.7161 1.18216 11.2582C0.815887 10.8004 0.815887 10.0635 0.815887 8.58974C0.815887 7.11596 0.815887 6.37907 1.18216 5.92122C1.54844 5.46338 2.13795 5.46338 3.31697 5.46338H6.65175C7.83078 5.46338 8.42029 5.46338 8.78656 5.92122C9.15284 6.37907 9.15284 7.11596 9.15284 8.58974C9.15284 10.0635 9.15284 10.8004 8.78656 11.2582C8.42029 11.7161 7.83078 11.7161 6.65175 11.7161H6.23491" stroke="white" stroke-width="1.5" stroke-linecap="round"/>
<path d="M1.85803 5.4634V4.42128C1.85803 4.24375 1.87283 4.06967 1.90126 3.90022M8.01225 3.63969C7.66519 2.29127 6.44115 1.29492 4.98439 1.29492C4.05847 1.29492 3.22656 1.69744 2.6541 2.33704" stroke="white" stroke-width="1.5" stroke-linecap="round"/>
</svg>
