<svg width="30" height="30" viewBox="0 0 30 30" fill="none" xmlns="http://www.w3.org/2000/svg">
<circle cx="15" cy="15" r="14.5" transform="rotate(-90 15 15)" stroke="url(#paint0_linear_1_79)"/>
<path d="M21.0362 13.3518C21.0362 13.3504 21.0364 13.3491 21.0364 13.3477C21.0364 11.7086 19.7076 10.3799 18.0685 10.3799C16.4294 10.3799 15.1007 11.7086 15.1007 13.3477C15.1007 14.9869 16.4295 16.3156 18.0685 16.3156C18.4054 16.3156 18.7279 16.2569 19.0296 16.1534C18.3619 19.9839 15.3748 22.4542 18.1438 20.4211C21.2142 18.1666 21.0396 13.4383 21.0362 13.3518ZM11.5393 16.3156C11.8762 16.3156 12.1986 16.2568 12.5005 16.1534C11.8326 19.9839 8.84556 22.4541 11.6146 20.421C14.685 18.1666 14.5105 13.4383 14.507 13.3518C14.507 13.3504 14.5071 13.3491 14.5071 13.3477C14.5071 11.7086 13.1784 10.3799 11.5393 10.3799C9.90018 10.3799 8.57147 11.7086 8.57147 13.3477C8.57147 14.9869 9.90033 16.3156 11.5393 16.3156Z" fill="#F15A29"/>
<defs>
<linearGradient id="paint0_linear_1_79" x1="15" y1="-9.53674e-07" x2="15" y2="30" gradientUnits="userSpaceOnUse">
<stop stop-color="#24272A" stop-opacity="0.22"/>
<stop offset="1" stop-color="#24272A" stop-opacity="0"/>
</linearGradient>
</defs>
</svg>
