<svg width="24" height="20" viewBox="0 0 24 20" fill="none" xmlns="http://www.w3.org/2000/svg">
<path d="M12.2847 0.666504C12.9077 0.670004 14.4663 0.685171 16.123 0.751671L16.711 0.777337C18.3782 0.855504 20.0442 0.990837 20.8713 1.22067C21.9738 1.531 22.8395 2.434 23.1323 3.57967C23.599 5.39967 23.6573 8.94867 23.6643 9.8085L23.6655 9.98584V10.1888C23.6573 11.0487 23.599 14.5988 23.1323 16.4177C22.836 17.5668 21.9692 18.471 20.8713 18.7767C20.0442 19.0065 18.3782 19.1418 16.711 19.22L16.123 19.2468C14.4663 19.3122 12.9077 19.3285 12.2847 19.3308L12.0105 19.332H11.713C10.3947 19.3238 4.88099 19.2643 3.12633 18.7767C2.02499 18.4663 1.15816 17.5633 0.865328 16.4177C0.398662 14.5977 0.340328 11.0487 0.333328 10.1888V9.8085C0.340328 8.94867 0.398662 5.3985 0.865328 3.57967C1.16166 2.4305 2.02849 1.52634 3.12749 1.22184C4.88099 0.733004 10.3958 0.673504 11.7142 0.666504H12.2847ZM9.66549 5.9165V14.0832L16.6655 9.99984L9.66549 5.9165Z" fill="#F12929"/>
</svg>
